<svg xmlns="http://www.w3.org/2000/svg" xmlns:xlink="http://www.w3.org/1999/xlink" fill="none" version="1.1" width="1024" height="1024" viewBox="0 0 1024 1024"><defs><clipPath id="master_svg0_1_0"><rect x="0" y="0" width="1024" height="1024" rx="0"/></clipPath></defs><g><g clip-path="url(#master_svg0_1_0)"><rect x="0" y="0" width="1024" height="1024" rx="0" fill="#000000" fill-opacity="1"/><g><path d="M212.42,458.36L212.42,580.4C212.42,582.74,213.68,584,216.02,584L246.44,584C248.78,584,250.04,582.74,250.04,580.4L250.04,544.4C250.04,540.44,245.18,536.3,241.94,534.86L241.94,531.26L296.3,531.26L296.3,534.86C293.6,536.3,288.2,540.44,288.2,544.4L288.2,580.4C288.2,582.74,289.46,584,291.8,584L322.22,584C324.56,584,325.82,582.74,325.82,580.4L325.82,458.36C325.82,456.02,324.56,454.76,322.22,454.76L291.8,454.76C289.46,454.76,288.2,456.02,288.2,458.36L288.2,500.48L250.04,500.48L250.04,458.36C250.04,456.02,248.78,454.76,246.44,454.76L216.02,454.76C213.68,454.76,212.42,456.02,212.42,458.36ZM346.7,547.8199999999999C346.7,571.76,360.38,586.16,383.41999999999996,586.16C394.22,586.16,402.68,579.3199999999999,405.74,566.36L409.88,566.36C414.2,566.36,411.86,574.1,408.26,579.86C406.64,582.38,407.36,584,410.24,584L440.3,584C442.64,584,443.9,582.74,443.9,580.4L443.9,494.36C443.9,492.02,442.64,490.76,440.3,490.76L410.24,490.76C407.9,490.76,406.64,492.02,406.64,494.36L406.64,540.62C406.64,548.72,402.68,553.94,395.3,553.94C387.74,553.94,383.96000000000004,549.26,383.96000000000004,540.08L383.96000000000004,494.36C383.96000000000004,492.02,382.7,490.76,380.36,490.76L350.3,490.76C347.96000000000004,490.76,346.7,492.02,346.7,494.36L346.7,547.8199999999999ZM464.6,567.8C464.6,578.6,472.52,586.16,483.86,586.16C495.2,586.16,503.12,578.6,503.12,567.8C503.12,557,495.2,549.44,483.86,549.44C472.52,549.44,464.6,557,464.6,567.8ZM529.94,584L607.88,584C610.22,584,611.48,582.74,611.48,580.4L611.48,554.48C611.48,552.14,610.22,550.88,607.88,550.88L563.96,550.88L563.96,458.36C563.96,456.02,562.7,454.76,560.36,454.76L529.94,454.76C527.6,454.76,526.3399999999999,456.02,526.3399999999999,458.36L526.3399999999999,580.4C526.3399999999999,582.74,527.6,584,529.94,584ZM622.64,529.8199999999999C632,523.52,643.52,520.1,655.76,520.1C662.4200000000001,520.1,667.64,523.16,667.64,527.66L645.6800000000001,531.62C625.3399999999999,535.22,614.9,545.3,614.9,560.42C614.9,574.8199999999999,626.6,586.16,645.3199999999999,586.16C655.76,586.16,663.3199999999999,577.34,665.12,566.36L667.1,566.36C671.4200000000001,566.36,669.8,573.74,665.3,579.86C663.3199999999999,582.38,663.86,584,666.9200000000001,584L699.6800000000001,584C702.02,584,703.28,582.74,703.28,580.4L703.28,528.02C703.28,504.44,687.44,488.6,657.38,488.6C644.06,488.6,631.8199999999999,491.48,621.02,495.8C619.22,496.52,618.3199999999999,497.96,618.3199999999999,499.94L618.3199999999999,527.66C618.3199999999999,530.54,620.12,531.44,622.64,529.8199999999999ZM655.76,560.24C651.26,560.24,649.1,558.44,649.1,555.02C649.1,551.6,651.98,549.62,656.12,548.9L667.64,546.92L667.64,547.28C667.64,556.1,661.3399999999999,560.24,655.76,560.24ZM754.4,579.86C752.06,574.1,750.62,566,753.14,566L756.38,566C759.44,578.78,767.72,586.16,781.04,586.16C801.2,586.16,821.36,567.62,821.36,537.38C821.36,507.14,801.02,488.6,783.2,488.6C770.42,488.6,761.24,496.88,759.62,507.14L756.38,507.14C746.3,507.14,751.7,477.08,755.48,458.72C756.02,456.2,754.94,454.76,752.42,454.76L723.08,454.76C720.74,454.76,719.48,456.02,719.48,458.36L719.48,580.4C719.48,582.74,720.74,584,723.08,584L752.06,584C754.76,584,755.48,582.38,754.4,579.86ZM770.06,554.48C761.24,554.48,755.12,548,755.12,537.92C755.12,527.84,760.88,521.36,770.06,521.36C778.52,521.36,784.46,527.84,784.46,537.92C784.46,548,778.52,554.48,770.06,554.48Z" fill="#FFFFFF" fill-opacity="1"/></g><g><line x1="345" y1="467" x2="445" y2="467" fill-opacity="0" stroke-opacity="1" stroke="#04F692" fill="none" stroke-width="24" stroke-dasharray="4 2 6 8 4 4 2 6 8 4"/></g></g></g></svg>