<svg xmlns="http://www.w3.org/2000/svg" xmlns:xlink="http://www.w3.org/1999/xlink" fill="none" version="1.1" width="758" height="255" viewBox="0 0 758 255"><defs><clipPath id="master_svg0_1_0"><rect x="0" y="0" width="758" height="255" rx="0"/></clipPath></defs><g clip-path="url(#master_svg0_1_0)"><g><rect x="0" y="0" width="758" height="255" rx="36" fill="#000000" fill-opacity="1"/></g><g><path d="M78.42,65.36L78.42,187.4C78.42,189.74,79.68,191,82.02,191L112.44,191C114.78,191,116.03999999999999,189.74,116.03999999999999,187.4L116.03999999999999,151.4C116.03999999999999,147.44,111.18,143.3,107.94,141.86L107.94,138.26L162.3,138.26L162.3,141.86C159.6,143.3,154.2,147.44,154.2,151.4L154.2,187.4C154.2,189.74,155.45999999999998,191,157.8,191L188.22,191C190.56,191,191.82,189.74,191.82,187.4L191.82,65.36C191.82,63.02,190.56,61.76,188.22,61.76L157.8,61.76C155.45999999999998,61.76,154.2,63.02,154.2,65.36L154.2,107.48L116.03999999999999,107.48L116.03999999999999,65.36C116.03999999999999,63.02,114.78,61.76,112.44,61.76L82.02,61.76C79.68,61.76,78.42,63.02,78.42,65.36ZM212.7,154.82C212.7,178.76,226.38,193.16,249.42,193.16C260.22,193.16,268.68,186.32,271.74,173.36L275.88,173.36C280.2,173.36,277.86,181.1,274.26,186.86C272.64,189.38,273.36,191,276.24,191L306.3,191C308.64,191,309.9,189.74,309.9,187.4L309.9,101.36C309.9,99.02,308.64,97.76,306.3,97.76L276.24,97.76C273.9,97.76,272.64,99.02,272.64,101.36L272.64,147.62C272.64,155.72,268.68,160.94,261.3,160.94C253.74,160.94,249.96,156.26,249.96,147.08L249.96,101.36C249.96,99.02,248.7,97.76,246.36,97.76L216.3,97.76C213.96,97.76,212.7,99.02,212.7,101.36L212.7,154.82ZM330.6,174.8C330.6,185.6,338.52,193.16,349.86,193.16C361.2,193.16,369.12,185.6,369.12,174.8C369.12,164,361.2,156.44,349.86,156.44C338.52,156.44,330.6,164,330.6,174.8ZM395.94,191L473.88,191C476.22,191,477.48,189.74,477.48,187.4L477.48,161.48C477.48,159.14,476.22,157.88,473.88,157.88L429.96,157.88L429.96,65.36C429.96,63.02,428.7,61.76,426.36,61.76L395.94,61.76C393.6,61.76,392.34,63.02,392.34,65.36L392.34,187.4C392.34,189.74,393.6,191,395.94,191ZM488.64,136.82C498,130.51999999999998,509.52,127.1,521.76,127.1C528.4200000000001,127.1,533.64,130.16,533.64,134.66L511.68,138.62C491.34,142.22,480.9,152.3,480.9,167.42C480.9,181.82,492.6,193.16,511.32,193.16C521.76,193.16,529.3199999999999,184.34,531.12,173.36L533.1,173.36C537.4200000000001,173.36,535.8,180.74,531.3,186.86C529.3199999999999,189.38,529.86,191,532.9200000000001,191L565.6800000000001,191C568.02,191,569.28,189.74,569.28,187.4L569.28,135.01999999999998C569.28,111.44,553.44,95.6,523.38,95.6C510.06,95.6,497.82,98.48,487.02,102.8C485.22,103.52,484.32,104.96,484.32,106.94L484.32,134.66C484.32,137.54000000000002,486.12,138.44,488.64,136.82ZM521.76,167.24C517.26,167.24,515.1,165.44,515.1,162.02C515.1,158.6,517.98,156.62,522.12,155.9L533.64,153.92L533.64,154.28C533.64,163.1,527.3399999999999,167.24,521.76,167.24ZM620.4,186.86C618.06,181.1,616.62,173,619.14,173L622.38,173C625.44,185.78,633.72,193.16,647.04,193.16C667.2,193.16,687.36,174.62,687.36,144.38C687.36,114.14,667.02,95.6,649.2,95.6C636.42,95.6,627.24,103.88,625.62,114.14L622.38,114.14C612.3,114.14,617.7,84.08,621.48,65.72C622.02,63.2,620.94,61.76,618.42,61.76L589.08,61.76C586.74,61.76,585.48,63.02,585.48,65.36L585.48,187.4C585.48,189.74,586.74,191,589.08,191L618.06,191C620.76,191,621.48,189.38,620.4,186.86ZM636.06,161.48C627.24,161.48,621.12,155,621.12,144.92C621.12,134.84,626.88,128.36,636.06,128.36C644.52,128.36,650.46,134.84,650.46,144.92C650.46,155,644.52,161.48,636.06,161.48Z" fill="#FFFFFF" fill-opacity="1"/></g><g><line x1="211" y1="74" x2="311" y2="74" fill-opacity="0" stroke-opacity="1" stroke="#04F692" fill="none" stroke-width="24" stroke-dasharray="4 2 6 8 4 4 2 6 8 4"/></g></g></svg>